HIERARCHY
ROOT pelvis
{
  OFFSET 0 100 0
  CHANNELS 6 Xposition Yposition Zposition Zrotation Xrotation Yrotation
  JOINT pelvis_right_femur
  {
    OFFSET -10.78128 -3.44521 -0.5502486
    CHANNELS 3 Zrotation Xrotation Yrotation
    JOINT right_femur_tibia
    {
      OFFSET -0.8047443 -44.0398 -0.1307829
      CHANNELS 3 Zrotation Xrotation Yrotation
      JOINT right_tibia_foot
      {
        OFFSET 3.006224 -47.83518 -5
        CHANNELS 3 Zrotation Xrotation Yrotation
        End Site
        {
          OFFSET 0 -5 15
        }
      }
    }
  }
  JOINT pelvis_left_femur
  {
    OFFSET 10.78128 -3.44521 -0.5502486
    CHANNELS 3 Zrotation Xrotation Yrotation
    JOINT left_femur_tibia
    {
      OFFSET 0.8047443 -44.0398 -0.1307829
      CHANNELS 3 Zrotation Xrotation Yrotation
      JOINT left_tibia_foot
      {
        OFFSET -4.370144 -48.10324 -4.275266
        CHANNELS 3 Zrotation Xrotation Yrotation
        End Site
        {
          OFFSET 0 -5 15
        }
      }
    }
  }
  JOINT pelvis_spine1
  {
    OFFSET 0 6.468898 -3.129235
    CHANNELS 3 Zrotation Xrotation Yrotation
    JOINT spine1
    {
      OFFSET 0 23.15396 4.99043
      CHANNELS 3 Zrotation Xrotation Yrotation
      JOINT spine2
      {
        OFFSET 0 20.79997 -5.064912
        CHANNELS 3 Zrotation Xrotation Yrotation
        JOINT neck
        {
          OFFSET 0 14.38658 9.616178
          CHANNELS 3 Zrotation Xrotation Yrotation
          End Site
          {
            OFFSET 0 20 0
          }
        }
      }
      JOINT right_manubrium
      {
        OFFSET -5.722621 16.35077 3.967754
        CHANNELS 3 Zrotation Xrotation Yrotation
        JOINT right_clavicle
        {
          OFFSET -13.16364 1.694482 -4.693211
          CHANNELS 3 Zrotation Xrotation Yrotation
          JOINT right_humerus
          {
            OFFSET -28.5034 -0.3100689 -2.792744
            CHANNELS 3 Zrotation Xrotation Yrotation
            JOINT right_radius
            {
              OFFSET -25.15693 0.02248979 -1.271978
              CHANNELS 3 Zrotation Xrotation Yrotation
              End Site
              {
                OFFSET -15 0 0
              }
            }
          }
        }
      }
      JOINT left_manubrium
      {
        OFFSET 5.722621 16.35077 3.967754
        CHANNELS 3 Zrotation Xrotation Yrotation
        JOINT left_clavicle
        {
          OFFSET 13.16364 1.694482 -4.693211
          CHANNELS 3 Zrotation Xrotation Yrotation
          JOINT left_humerus
          {
            OFFSET 29.39168 -1.063119 -2.237045
            CHANNELS 3 Zrotation Xrotation Yrotation
            JOINT left_radius
            {
              OFFSET 24.59957 -0.9528479 0.9047498
              CHANNELS 3 Zrotation Xrotation Yrotation
              End Site
              {
                OFFSET 15 -0 -0
              }
            }
          }
        }
      }
    }
  }
}
MOTION
Frames: 19
Frame Time: 0.0416666666667
-2500.441 100.6715 944.189 -3.507492 5.576876 -152.7898 0.9274918 21.95102 -0.1032883 -0 28.24938 -0 -6.24697 -4.102533 1.336263 -2.844222 -19.6263 -9.771468 -0 12.72414 -0 -4.195117 -7.254396 21.04773 -1.681535 -0.7377053 6.082903 -1.163962 8.678722 -1.635547 2.436022 24.14743 5.419413 3.269773 -18.95298 7.079168 -1.342394 -20.98524 9.240425 82.97833 21.34658 -2.760451 -0 0 20.68731 -23.30783 5.47531 16.53393 5.337359 -14.70043 -1.385011 -96.18034 21.14991 26.25752 -0 0 0.4208973 3.419287 12.61171 9.0458
-2504.718 100.6771 938.2711 -3.477949 5.595313 -153.0933 0.9274918 21.95102 -0.1032883 -0 28.24938 -0 -6.24697 -4.102533 1.336263 -2.844222 -19.6263 -9.771468 -0 12.72414 -0 -4.195117 -7.254396 21.04773 -1.681535 -0.7377053 6.082903 -1.163962 8.678722 -1.635547 2.436022 24.14743 5.419413 3.269773 -18.95298 7.079168 -1.342394 -20.98524 9.240425 82.97833 21.34658 -2.760451 -0 0 20.68731 -23.30783 5.47531 16.53393 5.337359 -14.70043 -1.385011 -96.18034 21.14991 26.25752 -0 0 0.4208973 3.419287 12.61171 9.0458
-2508.964 100.6828 932.3306 -3.448306 5.613594 -153.3968 0.9274918 21.95102 -0.1032883 -0 28.24938 -0 -6.24697 -4.102533 1.336263 -2.844222 -19.6263 -9.771468 -0 12.72414 -0 -4.195117 -7.254396 21.04773 -1.681535 -0.7377053 6.082903 -1.163962 8.678722 -1.635547 2.436022 24.14743 5.419413 3.269773 -18.95298 7.079168 -1.342394 -20.98524 9.240425 82.97833 21.34658 -2.760451 -0 0 20.68731 -23.30783 5.47531 16.53393 5.337359 -14.70043 -1.385011 -96.18034 21.14991 26.25752 -0 0 0.4208973 3.419287 12.61171 9.0458
-2513.179 100.6885 926.3679 -3.418566 5.631718 -153.7004 0.9274918 21.95102 -0.1032883 -0 28.24938 -0 -6.24697 -4.102533 1.336263 -2.844222 -19.6263 -9.771468 -0 12.72414 -0 -4.195117 -7.254396 21.04773 -1.681535 -0.7377053 6.082903 -1.163962 8.678722 -1.635547 2.436022 24.14743 5.419413 3.269773 -18.95298 7.079168 -1.342394 -20.98524 9.240425 82.97833 21.34658 -2.760451 -0 0 20.68731 -23.30783 5.47531 16.53393 5.337359 -14.70043 -1.385011 -96.18034 21.14991 26.25752 -0 0 0.4208973 3.419287 12.61171 9.0458
-2517.362 100.6942 920.3829 -3.388728 5.649685 -154.0039 0.9274918 21.95102 -0.1032883 -0 28.24938 -0 -6.24697 -4.102533 1.336263 -2.844222 -19.6263 -9.771468 -0 12.72414 -0 -4.195117 -7.254396 21.04773 -1.681535 -0.7377053 6.082903 -1.163962 8.678722 -1.635547 2.436022 24.14743 5.419413 3.269773 -18.95298 7.079168 -1.342394 -20.98524 9.240425 82.97833 21.34658 -2.760451 -0 0 20.68731 -23.30783 5.47531 16.53393 5.337359 -14.70043 -1.385011 -96.18034 21.14991 26.25752 -0 0 0.4208973 3.419287 12.61171 9.0458
-2521.513 100.6999 914.3759 -3.358795 5.667494 -154.3075 0.9274918 21.95102 -0.1032883 -0 28.24938 -0 -6.24697 -4.102533 1.336263 -2.844222 -19.6263 -9.771468 -0 12.72414 -0 -4.195117 -7.254396 21.04773 -1.681535 -0.7377053 6.082903 -1.163962 8.678722 -1.635547 2.436022 24.14743 5.419413 3.269773 -18.95298 7.079168 -1.342394 -20.98524 9.240425 82.97833 21.34658 -2.760451 -0 0 20.68731 -23.30783 5.47531 16.53393 5.337359 -14.70043 -1.385011 -96.18034 21.14991 26.25752 -0 0 0.4208973 3.419287 12.61171 9.0458
-2525.633 100.7056 908.3471 -3.328766 5.685146 -154.6111 0.9274918 21.95102 -0.1032883 -0 28.24938 -0 -6.24697 -4.102533 1.336263 -2.844222 -19.6263 -9.771468 -0 12.72414 -0 -4.195117 -7.254396 21.04773 -1.681535 -0.7377053 6.082903 -1.163962 8.678722 -1.635547 2.436022 24.14743 5.419413 3.269773 -18.95298 7.079168 -1.342394 -20.98524 9.240425 82.97833 21.34658 -2.760451 -0 0 20.68731 -23.30783 5.47531 16.53393 5.337359 -14.70043 -1.385011 -96.18034 21.14991 26.25752 -0 0 0.4208973 3.419287 12.61171 9.0458
-2529.72 100.7113 902.2967 -3.298642 5.702639 -154.9147 0.9274918 21.95102 -0.1032883 -0 28.24938 -0 -6.24697 -4.102533 1.336263 -2.844222 -19.6263 -9.771468 -0 12.72414 -0 -4.195117 -7.254396 21.04773 -1.681535 -0.7377053 6.082903 -1.163962 8.678722 -1.635547 2.436022 24.14743 5.419413 3.269773 -18.95298 7.079168 -1.342394 -20.98524 9.240425 82.97833 21.34658 -2.760451 -0 0 20.68731 -23.30783 5.47531 16.53393 5.337359 -14.70043 -1.385011 -96.18034 21.14991 26.25752 -0 0 0.4208973 3.419287 12.61171 9.0458
-2533.776 100.717 896.2247 -3.268425 5.719972 -155.2184 0.9274918 21.95102 -0.1032883 -0 28.24938 -0 -6.24697 -4.102533 1.336263 -2.844222 -19.6263 -9.771468 -0 12.72414 -0 -4.195117 -7.254396 21.04773 -1.681535 -0.7377053 6.082903 -1.163962 8.678722 -1.635547 2.436022 24.14743 5.419413 3.269773 -18.95298 7.079168 -1.342394 -20.98524 9.240425 82.97833 21.34658 -2.760451 -0 0 20.68731 -23.30783 5.47531 16.53393 5.337359 -14.70043 -1.385011 -96.18034 21.14991 26.25752 -0 0 0.4208973 3.419287 12.61171 9.0458
-2537.8 100.7227 890.1314 -3.238115 5.737146 -155.522 0.9274918 21.95102 -0.1032883 -0 28.24938 -0 -6.24697 -4.102533 1.336263 -2.844222 -19.6263 -9.771468 -0 12.72414 -0 -4.195117 -7.254396 21.04773 -1.681535 -0.7377053 6.082903 -1.163962 8.678722 -1.635547 2.436022 24.14743 5.419413 3.269773 -18.95298 7.079168 -1.342394 -20.98524 9.240425 82.97833 21.34658 -2.760451 -0 0 20.68731 -23.30783 5.47531 16.53393 5.337359 -14.70043 -1.385011 -96.18034 21.14991 26.25752 -0 0 0.4208973 3.419287 12.61171 9.0458
-2541.791 100.7284 884.0169 -3.207714 5.75416 -155.8257 0.9274918 21.95102 -0.1032883 -0 28.24938 -0 -6.24697 -4.102533 1.336263 -2.844222 -19.6263 -9.771468 -0 12.72414 -0 -4.195117 -7.254396 21.04773 -1.681535 -0.7377053 6.082903 -1.163962 8.678722 -1.635547 2.436022 24.14743 5.419413 3.269773 -18.95298 7.079168 -1.342394 -20.98524 9.240425 82.97833 21.34658 -2.760451 -0 0 20.68731 -23.30783 5.47531 16.53393 5.337359 -14.70043 -1.385011 -96.18034 21.14991 26.25752 -0 0 0.4208973 3.419287 12.61171 9.0458
-2545.75 100.7341 877.8814 -3.177221 5.771014 -156.1294 0.9274918 21.95102 -0.1032883 -0 28.24938 -0 -6.24697 -4.102533 1.336263 -2.844222 -19.6263 -9.771468 -0 12.72414 -0 -4.195117 -7.254396 21.04773 -1.681535 -0.7377053 6.082903 -1.163962 8.678722 -1.635547 2.436022 24.14743 5.419413 3.269773 -18.95298 7.079168 -1.342394 -20.98524 9.240425 82.97833 21.34658 -2.760451 -0 0 20.68731 -23.30783 5.47531 16.53393 5.337359 -14.70043 -1.385011 -96.18034 21.14991 26.25752 -0 0 0.4208973 3.419287 12.61171 9.0458
-2549.676 100.7397 871.7251 -3.146638 5.787706 -156.4331 0.9274918 21.95102 -0.1032883 -0 28.24938 -0 -6.24697 -4.102533 1.336263 -2.844222 -19.6263 -9.771468 -0 12.72414 -0 -4.195117 -7.254396 21.04773 -1.681535 -0.7377053 6.082903 -1.163962 8.678722 -1.635547 2.436022 24.14743 5.419413 3.269773 -18.95298 7.079168 -1.342394 -20.98524 9.240425 82.97833 21.34658 -2.760451 -0 0 20.68731 -23.30783 5.47531 16.53393 5.337359 -14.70043 -1.385011 -96.18034 21.14991 26.25752 -0 0 0.4208973 3.419287 12.61171 9.0458
-2553.57 100.7454 865.5481 -3.115965 5.804237 -156.7368 0.9274918 21.95102 -0.1032883 -0 28.24938 -0 -6.24697 -4.102533 1.336263 -2.844222 -19.6263 -9.771468 -0 12.72414 -0 -4.195117 -7.254396 21.04773 -1.681535 -0.7377053 6.082903 -1.163962 8.678722 -1.635547 2.436022 24.14743 5.419413 3.269773 -18.95298 7.079168 -1.342394 -20.98524 9.240425 82.97833 21.34658 -2.760451 -0 0 20.68731 -23.30783 5.47531 16.53393 5.337359 -14.70043 -1.385011 -96.18034 21.14991 26.25752 -0 0 0.4208973 3.419287 12.61171 9.0458
-2557.431 100.7511 859.3507 -3.085204 5.820606 -157.0406 0.9274918 21.95102 -0.1032883 -0 28.24938 -0 -6.24697 -4.102533 1.336263 -2.844222 -19.6263 -9.771468 -0 12.72414 -0 -4.195117 -7.254396 21.04773 -1.681535 -0.7377053 6.082903 -1.163962 8.678722 -1.635547 2.436022 24.14743 5.419413 3.269773 -18.95298 7.079168 -1.342394 -20.98524 9.240425 82.97833 21.34658 -2.760451 -0 0 20.68731 -23.30783 5.47531 16.53393 5.337359 -14.70043 -1.385011 -96.18034 21.14991 26.25752 -0 0 0.4208973 3.419287 12.61171 9.0458
-2561.26 100.7568 853.1329 -3.054355 5.836813 -157.3443 0.9274918 21.95102 -0.1032883 -0 28.24938 -0 -6.24697 -4.102533 1.336263 -2.844222 -19.6263 -9.771468 -0 12.72414 -0 -4.195117 -7.254396 21.04773 -1.681535 -0.7377053 6.082903 -1.163962 8.678722 -1.635547 2.436022 24.14743 5.419413 3.269773 -18.95298 7.079168 -1.342394 -20.98524 9.240425 82.97833 21.34658 -2.760451 -0 0 20.68731 -23.30783 5.47531 16.53393 5.337359 -14.70043 -1.385011 -96.18034 21.14991 26.25752 -0 0 0.4208973 3.419287 12.61171 9.0458
-2565.055 100.7625 846.8951 -3.023419 5.852856 -157.6481 0.9274918 21.95102 -0.1032883 -0 28.24938 -0 -6.24697 -4.102533 1.336263 -2.844222 -19.6263 -9.771468 -0 12.72414 -0 -4.195117 -7.254396 21.04773 -1.681535 -0.7377053 6.082903 -1.163962 8.678722 -1.635547 2.436022 24.14743 5.419413 3.269773 -18.95298 7.079168 -1.342394 -20.98524 9.240425 82.97833 21.34658 -2.760451 -0 0 20.68731 -23.30783 5.47531 16.53393 5.337359 -14.70043 -1.385011 -96.18034 21.14991 26.25752 -0 0 0.4208973 3.419287 12.61171 9.0458
-2568.818 100.7682 840.6372 -2.992398 5.868736 -157.9519 0.9274918 21.95102 -0.1032883 -0 28.24938 -0 -6.24697 -4.102533 1.336263 -2.844222 -19.6263 -9.771468 -0 12.72414 -0 -4.195117 -7.254396 21.04773 -1.681535 -0.7377053 6.082903 -1.163962 8.678722 -1.635547 2.436022 24.14743 5.419413 3.269773 -18.95298 7.079168 -1.342394 -20.98524 9.240425 82.97833 21.34658 -2.760451 -0 0 20.68731 -23.30783 5.47531 16.53393 5.337359 -14.70043 -1.385011 -96.18034 21.14991 26.25752 -0 0 0.4208973 3.419287 12.61171 9.0458
-2572.547 100.7739 834.3596 -2.961291 5.884453 -158.2557 0.9274918 21.95102 -0.1032883 -0 28.24938 -0 -6.24697 -4.102533 1.336263 -2.844222 -19.6263 -9.771468 -0 12.72414 -0 -4.195117 -7.254396 21.04773 -1.681535 -0.7377053 6.082903 -1.163962 8.678722 -1.635547 2.436022 24.14743 5.419413 3.269773 -18.95298 7.079168 -1.342394 -20.98524 9.240425 82.97833 21.34658 -2.760451 -0 0 20.68731 -23.30783 5.47531 16.53393 5.337359 -14.70043 -1.385011 -96.18034 21.14991 26.25752 -0 0 0.4208973 3.419287 12.61171 9.0458
